<svg width="1200" height="630" viewBox="0 0 1200 630" fill="none" xmlns="http://www.w3.org/2000/svg">
  <rect width="1200" height="630" fill="#081B2C"/>
  <path d="M0 105H1200M0 210H1200M0 315H1200M0 420H1200M0 525H1200M100 0V630M200 0V630M300 0V630M400 0V630M500 0V630M600 0V630M700 0V630M800 0V630M900 0V630M1000 0V630M1100 0V630" stroke="white" stroke-opacity=".055"/>
  <circle cx="1030" cy="110" r="255" stroke="#E9A23B" stroke-opacity=".25" stroke-width="2"/>
  <circle cx="1030" cy="110" r="145" stroke="white" stroke-opacity=".1" stroke-width="2"/>
  <rect x="88" y="92" width="76" height="76" rx="20" fill="#A83D18"/>
  <path d="M126 106L150 130L126 154L102 130Z" stroke="white" stroke-width="5" stroke-linejoin="round"/>
  <circle cx="126" cy="130" r="5" fill="#E9A23B"/>
  <text x="88" y="285" fill="white" font-family="Helvetica, Arial, sans-serif" font-size="68" font-weight="700">The Provider System</text>
  <text x="88" y="355" fill="#E9A23B" font-family="Helvetica, Arial, sans-serif" font-size="24" font-weight="700">TEXAS DIGITAL SYSTEMS AGENCY</text>
  <text x="88" y="440" fill="white" fill-opacity=".65" font-family="Helvetica, Arial, sans-serif" font-size="30">Websites · CRM · Automation · Practical AI</text>
  <text x="88" y="520" fill="white" fill-opacity=".4" font-family="Helvetica, Arial, sans-serif" font-size="22">Texas first. Remote nationwide.</text>
</svg>
